<?xml version="1.0" standalone="no"?>
<!DOCTYPE svg PUBLIC "-//W3C//DTD SVG 20010904//EN"
 "http://www.w3.org/TR/2001/REC-SVG-20010904/DTD/svg10.dtd">
<svg version="1.0" xmlns="http://www.w3.org/2000/svg"
 width="300.000000pt" height="300.000000pt" viewBox="0 0 300.000000 300.000000"
 preserveAspectRatio="xMidYMid meet">
<metadata>
Created by potrace 1.14, written by Peter Selinger 2001-2017
</metadata>
<g transform="translate(0.000000,300.000000) scale(0.100000,-0.100000)"
fill="#000000" stroke="none">
<path d="M491 2880 c-281 -318 -426 -684 -436 -1100 -6 -296 63 -583 203 -843
96 -178 261 -377 422 -509 165 -136 409 -261 620 -317 168 -45 285 -59 470
-56 204 4 215 5 380 46 289 72 530 201 746 400 l51 47 -151 150 -151 151 -50
-46 c-221 -203 -546 -327 -850 -326 -48 0 -207 13 -215 18 -3 2 -23 6 -45 9
-63 10 -180 50 -282 96 -57 26 -186 102 -203 120 -3 3 -23 18 -45 35 -119 89
-263 268 -341 424 -95 189 -133 363 -130 585 3 156 20 260 65 393 54 160 168
350 272 451 l33 32 -149 150 c-82 83 -152 150 -155 150 -4 0 -30 -27 -59 -60z"/>
<path d="M933 2210 c-12 -5 -27 -19 -33 -30 -52 -98 153 -262 327 -262 148 0
132 136 -26 237 -84 53 -211 79 -268 55z"/>
<path d="M985 1743 c-101 -23 -169 -73 -180 -133 -6 -32 52 -85 102 -95 140
-26 322 29 361 111 15 32 15 38 2 62 -33 59 -162 84 -285 55z"/>
<path d="M1264 1400 c-105 -52 -195 -162 -210 -257 -5 -36 -3 -45 19 -67 34
-34 78 -34 148 1 106 53 209 187 209 273 0 41 -7 53 -37 69 -34 18 -65 13
-129 -19z"/>
<path d="M1962 1320 c-32 -13 -45 -55 -38 -128 13 -145 134 -308 225 -300 138
12 66 316 -99 417 -38 23 -53 25 -88 11z"/>
<path d="M1635 1270 c-33 -13 -71 -63 -95 -126 -32 -83 -35 -233 -4 -284 11
-19 32 -41 46 -49 51 -29 112 24 154 134 25 66 26 225 2 271 -28 52 -62 70
-103 54z"/>
</g>
</svg>
